<svg width="71" height="23" viewBox="0 0 71 23" fill="none" xmlns="http://www.w3.org/2000/svg">
<path d="M0.231087 22.148L3.87498 0.198918H17.1216L16.7358 2.55673H6.14705L4.90384 9.97312H14.8067L14.4208 12.3309H4.51802L3.27481 19.7902H14.035L13.6492 22.148H0.231087ZM22.7268 22.5338C21.6836 22.5338 20.7691 22.3373 19.9831 21.9444C19.1972 21.5443 18.6149 20.9691 18.2362 20.2189C17.8575 19.4615 17.7539 18.547 17.9254 17.4753C18.0897 16.5321 18.4077 15.7676 18.8792 15.1817C19.3508 14.5887 19.9224 14.1243 20.594 13.7885C21.2728 13.4455 22.0016 13.1919 22.7803 13.0276C23.5663 12.8561 24.3487 12.7239 25.1274 12.631C26.142 12.5024 26.9673 12.4024 27.6031 12.3309C28.239 12.2595 28.7177 12.1416 29.0393 11.9773C29.3608 11.8129 29.5573 11.5307 29.6287 11.1306V11.0449C29.8002 9.99456 29.6609 9.17647 29.2107 8.59059C28.7606 7.99756 27.9568 7.70105 26.7993 7.70105C25.599 7.70105 24.5951 7.96541 23.7878 8.49413C22.9804 9.02285 22.3838 9.5873 21.998 10.1875L19.7688 9.33008C20.3547 8.3298 21.0549 7.55101 21.8694 6.99371C22.6839 6.42926 23.5377 6.03629 24.4308 5.8148C25.3239 5.58616 26.1849 5.47185 27.0137 5.47185C27.5424 5.47185 28.139 5.53615 28.8035 5.66476C29.468 5.78622 30.0896 6.03986 30.6683 6.42569C31.2542 6.81151 31.6936 7.39382 31.9865 8.17261C32.2866 8.9514 32.3295 9.99456 32.1151 11.3021L30.3146 22.148H27.7853L28.1712 19.9188H28.0426C27.8139 20.276 27.4638 20.6583 26.9923 21.0656C26.5278 21.4728 25.9384 21.8193 25.2239 22.1051C24.5166 22.3909 23.6842 22.5338 22.7268 22.5338ZM23.4555 20.2618C24.4558 20.2618 25.3311 20.0653 26.0813 19.6723C26.8386 19.2793 27.446 18.7721 27.9032 18.1504C28.3676 17.5288 28.657 16.8751 28.7713 16.1892L29.1572 13.8742C29.0286 14.0028 28.7749 14.1207 28.3962 14.2279C28.0176 14.3279 27.5889 14.4172 27.1102 14.4958C26.6386 14.5673 26.1777 14.6316 25.7276 14.6887C25.2846 14.7388 24.9274 14.7816 24.6559 14.8174C23.9843 14.9031 23.3448 15.0424 22.7375 15.2353C22.1373 15.4211 21.63 15.7033 21.2156 16.082C20.8084 16.4535 20.5547 16.9608 20.4547 17.6039C20.3046 18.4827 20.5154 19.1472 21.087 19.5973C21.6586 20.0403 22.4481 20.2618 23.4555 20.2618ZM34.9311 22.148L37.6748 5.68619H40.1183L39.6896 8.17261H39.8611C40.2898 7.3581 40.9435 6.69719 41.8224 6.18991C42.7012 5.68262 43.6336 5.42897 44.6196 5.42897C44.8125 5.42897 45.0447 5.43255 45.3162 5.43969C45.5877 5.43969 45.7985 5.45041 45.9485 5.47185L45.5198 8.044C45.4341 8.02257 45.2412 7.99042 44.9411 7.94755C44.641 7.89753 44.3195 7.87253 43.9765 7.87253C43.1763 7.87253 42.4368 8.04043 41.7581 8.37624C41.0793 8.70491 40.5113 9.16218 40.054 9.74806C39.5967 10.3268 39.3038 10.9877 39.1752 11.7308L37.4604 22.148H34.9311ZM50.3775 12.2452L48.7484 22.148H46.2191L48.9628 5.68619H51.4063L50.9776 8.25835H51.192C51.7064 7.4224 52.403 6.75078 53.2819 6.24349C54.1607 5.72906 55.2217 5.47185 56.4649 5.47185C57.5652 5.47185 58.4941 5.70048 59.2514 6.15775C60.0159 6.60788 60.5554 7.29379 60.8697 8.21548C61.1913 9.13003 61.2377 10.2875 61.0091 11.6879L59.2514 22.148H56.7221L58.4369 11.8594C58.6513 10.5733 58.4833 9.56586 57.9332 8.83709C57.3902 8.10831 56.5292 7.74392 55.3503 7.74392C54.5358 7.74392 53.782 7.91897 53.089 8.26907C52.403 8.61917 51.8207 9.13003 51.342 9.80165C50.8705 10.4733 50.549 11.2878 50.3775 12.2452ZM70.861 0.198918L68.0316 15.9748H65.5452L67.9459 0.198918H70.861ZM66.0596 22.3195C65.5166 22.3195 65.0629 22.1337 64.6985 21.7622C64.3341 21.3835 64.1448 20.9262 64.1305 20.3904C64.1233 19.8545 64.3127 19.4079 64.6985 19.0507C65.0843 18.6863 65.538 18.5041 66.0596 18.5041C66.5883 18.5041 67.0456 18.6899 67.4314 19.0614C67.8172 19.433 68.003 19.8759 67.9887 20.3904C67.9816 20.7476 67.8887 21.0727 67.7101 21.3656C67.5386 21.6586 67.3064 21.8908 67.0134 22.0623C66.7277 22.2337 66.4097 22.3195 66.0596 22.3195Z" fill="black"/>
<path d="M0.231087 22.148L-3.24237 21.5714C-3.41182 22.592 -3.12379 23.6355 -2.45479 24.4247C-1.78579 25.214 -0.80353 25.669 0.231087 25.669V22.148ZM3.87498 0.198918V-3.32208C2.15293 -3.32208 0.683547 -2.07653 0.40152 -0.37773L3.87498 0.198918ZM17.1216 0.198918L20.5964 0.767521C20.7632 -0.25211 20.4738 -1.29357 19.8048 -2.08093C19.1358 -2.86829 18.1548 -3.32208 17.1216 -3.32208V0.198918ZM16.7358 2.55673V6.07773C18.4609 6.07773 19.932 4.82782 20.2106 3.12533L16.7358 2.55673ZM6.14705 2.55673V-0.964269C4.4271 -0.964269 2.95885 0.27834 2.6745 1.97463L6.14705 2.55673ZM4.90384 9.97312L1.43129 9.39102C1.26009 10.4124 1.54718 11.4573 2.21618 12.2478C2.88519 13.0382 3.86826 13.4941 4.90384 13.4941V9.97312ZM14.8067 9.97312L18.2814 10.5417C18.4483 9.52209 18.1589 8.48064 17.4899 7.69328C16.8209 6.90592 15.8398 6.45212 14.8067 6.45212V9.97312ZM14.4208 12.3309V15.8519C16.146 15.8519 17.617 14.602 17.8956 12.8995L14.4208 12.3309ZM4.51802 12.3309V8.80994C2.79682 8.80994 1.32789 10.0543 1.04493 11.7521L4.51802 12.3309ZM3.27481 19.7902L-0.198285 19.2113C-0.368439 20.2323 -0.0807872 21.2764 0.588215 22.0661C1.25722 22.8558 2.2398 23.3112 3.27481 23.3112V19.7902ZM14.035 19.7902L17.5098 20.3588C17.6766 19.3392 17.3872 18.2977 16.7182 17.5104C16.0492 16.723 15.0682 16.2692 14.035 16.2692V19.7902ZM13.6492 22.148V25.669C15.3743 25.669 16.8454 24.4191 17.124 22.7166L13.6492 22.148ZM3.70455 22.7247L7.34844 0.775567L0.40152 -0.37773L-3.24237 21.5714L3.70455 22.7247ZM3.87498 3.71992H17.1216V-3.32208H3.87498V3.71992ZM13.6468 -0.369684L13.261 1.98813L20.2106 3.12533L20.5964 0.767521L13.6468 -0.369684ZM16.7358 -0.964269H6.14705V6.07773H16.7358V-0.964269ZM2.6745 1.97463L1.43129 9.39102L8.37639 10.5552L9.6196 3.13883L2.6745 1.97463ZM4.90384 13.4941H14.8067V6.45212H4.90384V13.4941ZM11.3319 9.40452L10.946 11.7623L17.8956 12.8995L18.2814 10.5417L11.3319 9.40452ZM14.4208 8.80994H4.51802V15.8519H14.4208V8.80994ZM1.04493 11.7521L-0.198285 19.2113L6.7479 20.369L7.99111 12.9098L1.04493 11.7521ZM3.27481 23.3112H14.035V16.2692H3.27481V23.3112ZM10.5602 19.2216L10.1744 21.5794L17.124 22.7166L17.5098 20.3588L10.5602 19.2216ZM13.6492 18.627H0.231087V25.669H13.6492V18.627ZM19.9831 21.9444L18.3857 25.0822C18.3933 25.086 18.4009 25.0899 18.4085 25.0937L19.9831 21.9444ZM18.2362 20.2189L15.0869 21.7935L15.0929 21.8055L18.2362 20.2189ZM17.9254 17.4753L14.4567 16.8709C14.4539 16.8869 14.4512 16.9029 14.4486 16.919L17.9254 17.4753ZM18.8792 15.1817L21.6221 17.3894C21.6265 17.384 21.6308 17.3786 21.6351 17.3732L18.8792 15.1817ZM20.594 13.7885L22.1687 16.9378C22.1731 16.9356 22.1775 16.9334 22.1819 16.9311L20.594 13.7885ZM22.7803 13.0276L23.5073 16.4727C23.5152 16.471 23.523 16.4694 23.5309 16.4676L22.7803 13.0276ZM25.1274 12.631L25.5444 16.1272C25.553 16.1262 25.5616 16.1252 25.5702 16.1241L25.1274 12.631ZM27.6031 12.3309L27.9963 15.8299L27.9963 15.8299L27.6031 12.3309ZM29.0393 11.9773L30.6417 15.1125L30.6417 15.1125L29.0393 11.9773ZM29.6287 11.1306L33.0949 11.7496C33.1314 11.5453 33.1497 11.3381 33.1497 11.1306H29.6287ZM29.6287 11.0449L26.1537 10.4775C26.1231 10.6651 26.1077 10.8548 26.1077 11.0449H29.6287ZM29.2107 8.59059L26.4062 10.7194C26.4103 10.7248 26.4145 10.7303 26.4187 10.7357L29.2107 8.59059ZM23.7878 8.49413L25.7167 11.4397L23.7878 8.49413ZM21.998 10.1875L20.734 13.4738C22.2922 14.0731 24.057 13.4958 24.9598 12.0915L21.998 10.1875ZM19.7688 9.33008L16.7306 7.55056C16.2082 8.44234 16.1041 9.51856 16.4457 10.494C16.7873 11.4693 17.5402 12.2454 18.5048 12.6164L19.7688 9.33008ZM21.8694 6.99371L23.8576 9.89961C23.8634 9.89567 23.8691 9.89171 23.8749 9.88773L21.8694 6.99371ZM24.4308 5.8148L25.2783 9.23228C25.2869 9.23015 25.2955 9.22799 25.304 9.2258L24.4308 5.8148ZM28.8035 5.66476L28.1344 9.1216C28.1464 9.12392 28.1584 9.12617 28.1704 9.12836L28.8035 5.66476ZM30.6683 6.42569L28.7152 9.35534C28.7207 9.35901 28.7262 9.36267 28.7318 9.36632L30.6683 6.42569ZM31.9865 8.17261L28.691 9.41223C28.6943 9.42103 28.6976 9.42982 28.701 9.4386L31.9865 8.17261ZM32.1151 11.3021L35.5886 11.8787L35.5898 11.8717L32.1151 11.3021ZM30.3146 22.148V25.669C32.0367 25.669 33.5061 24.4234 33.7881 22.7246L30.3146 22.148ZM27.7853 22.148L24.3159 21.5475C24.1388 22.5712 24.4227 23.6208 25.0917 24.4155C25.7607 25.2103 26.7465 25.669 27.7853 25.669V22.148ZM28.1712 19.9188L31.6406 20.5193C31.8177 19.4957 31.5338 18.446 30.8648 17.6513C30.1958 16.8566 29.21 16.3978 28.1712 16.3978V19.9188ZM28.0426 19.9188V16.3978C26.842 16.3978 25.7241 17.0096 25.0769 18.0208L28.0426 19.9188ZM26.9923 21.0656L24.6909 18.4008C24.6841 18.4066 24.6775 18.4124 24.6708 18.4183L26.9923 21.0656ZM25.2239 22.1051L23.9162 18.836L23.9049 18.8405L25.2239 22.1051ZM26.0813 19.6723L24.4596 16.5469L24.4475 16.5533L26.0813 19.6723ZM27.9032 18.1504L25.0825 16.043C25.0773 16.05 25.0722 16.057 25.067 16.064L27.9032 18.1504ZM28.7713 16.1892L25.2982 15.6103L28.7713 16.1892ZM29.1572 13.8742L32.6303 14.4531C32.8819 12.9433 32.1293 11.4439 30.7683 10.7435C29.4073 10.0431 27.7497 10.3022 26.6674 11.3845L29.1572 13.8742ZM28.3962 14.2279L29.2955 17.6321C29.3154 17.6269 29.3353 17.6214 29.3551 17.6158L28.3962 14.2279ZM27.1101 14.4958L27.6376 17.9771C27.652 17.9749 27.6663 17.9727 27.6806 17.9703L27.1101 14.4958ZM25.7276 14.6887L26.1226 18.1875C26.1388 18.1857 26.155 18.1838 26.1712 18.1817L25.7276 14.6887ZM24.6559 14.8174L25.1018 18.31L25.1152 18.3083L24.6559 14.8174ZM22.7375 15.2353L23.7786 18.5989C23.7869 18.5963 23.7952 18.5937 23.8034 18.5911L22.7375 15.2353ZM21.2156 16.082L23.5886 18.6832L23.5908 18.6812L21.2156 16.082ZM20.4547 17.6039L23.9255 18.1964C23.9284 18.1793 23.9312 18.1622 23.9338 18.1451L20.4547 17.6039ZM21.087 19.5973L18.9086 22.3635C18.9158 22.3691 18.9229 22.3748 18.9301 22.3803L21.087 19.5973ZM22.7268 19.0128C22.1286 19.0128 21.7714 18.9019 21.5578 18.7951L18.4085 25.0937C19.7667 25.7728 21.2386 26.0548 22.7268 26.0548V19.0128ZM21.5805 18.8066C21.4265 18.7282 21.4035 18.6799 21.3795 18.6323L15.0929 21.8055C15.8263 23.2583 16.9679 24.3604 18.3857 25.0822L21.5805 18.8066ZM21.3855 18.6443C21.4182 18.7097 21.3142 18.5814 21.4022 18.0315L14.4486 16.919C14.1936 18.5126 14.2968 20.2133 15.0869 21.7935L21.3855 18.6443ZM21.3941 18.0797C21.4835 17.5669 21.6129 17.401 21.6221 17.3894L16.1363 12.974C15.2025 14.1343 14.696 15.4973 14.4567 16.8709L21.3941 18.0797ZM21.6351 17.3732C21.7904 17.1779 21.9601 17.042 22.1687 16.9378L19.0194 10.6392C17.8847 11.2066 16.9112 11.9995 16.1233 12.9903L21.6351 17.3732ZM22.1819 16.9311C22.5756 16.7322 23.0134 16.5769 23.5073 16.4727L22.0534 9.58242C20.9897 9.80688 19.97 10.1589 19.0062 10.6459L22.1819 16.9311ZM23.5309 16.4676C24.2094 16.3196 24.8805 16.2064 25.5444 16.1272L24.7105 9.1348C23.8168 9.24138 22.9231 9.39258 22.0298 9.58749L23.5309 16.4676ZM25.5702 16.1241C26.5768 15.9965 27.3837 15.8987 27.9963 15.8299L27.21 8.83195C26.5508 8.90602 25.7073 9.00835 24.6847 9.13797L25.5702 16.1241ZM27.9963 15.8299C28.78 15.7419 29.7568 15.5648 30.6417 15.1125L27.4368 8.84204C27.5176 8.80078 27.5747 8.77934 27.5976 8.77126C27.6212 8.76293 27.6229 8.76373 27.5971 8.77008C27.5414 8.7838 27.4186 8.80851 27.21 8.83195L27.9963 15.8299ZM30.6417 15.1125C32.0766 14.3791 32.8577 13.0779 33.0949 11.7496L26.1626 10.5116C26.2001 10.3013 26.2978 9.97571 26.5381 9.63056C26.7869 9.27326 27.1094 9.0094 27.4368 8.84204L30.6417 15.1125ZM33.1497 11.1306V11.0449H26.1077V11.1306H33.1497ZM33.1037 11.6122C33.3619 10.0308 33.2662 8.08982 32.0028 6.44544L26.4187 10.7357C26.3412 10.6349 26.2835 10.5317 26.2436 10.4366C26.2043 10.3431 26.1881 10.2717 26.1818 10.2347C26.1707 10.1696 26.1936 10.2332 26.1537 10.4775L33.1037 11.6122ZM32.0153 6.4618C30.5967 4.59274 28.4355 4.18005 26.7993 4.18005V11.222C27.0988 11.222 27.1503 11.2632 27.0517 11.2268C26.9947 11.2058 26.8925 11.1604 26.7696 11.0732C26.6438 10.984 26.5171 10.8656 26.4062 10.7194L32.0153 6.4618ZM26.7993 4.18005C25.081 4.18005 23.365 4.56217 21.8588 5.54854L25.7167 11.4397C25.8253 11.3686 26.117 11.222 26.7993 11.222V4.18005ZM21.8588 5.54854C20.7756 6.25791 19.766 7.14827 19.0362 8.28346L24.9598 12.0915C25.0017 12.0263 25.1852 11.7878 25.7167 11.4397L21.8588 5.54854ZM23.2619 6.90116L21.0327 6.04377L18.5048 12.6164L20.734 13.4738L23.2619 6.90116ZM22.807 11.1096C23.1758 10.48 23.5405 10.1166 23.8576 9.89961L19.8811 4.0878C18.5692 4.9854 17.5335 6.17962 16.7306 7.55056L22.807 11.1096ZM23.8749 9.88773C24.3655 9.54773 24.8307 9.34329 25.2783 9.23228L23.5833 2.39733C22.2447 2.72929 21.0023 3.31079 19.8639 4.09968L23.8749 9.88773ZM25.304 9.2258C25.9433 9.06214 26.5103 8.99285 27.0137 8.99285V1.95085C25.8595 1.95085 24.7045 2.11019 23.5576 2.4038L25.304 9.2258ZM27.0137 8.99285C27.2657 8.99285 27.6325 9.02446 28.1344 9.1216L29.4726 2.20791C28.6455 2.04783 27.8191 1.95085 27.0137 1.95085V8.99285ZM28.1704 9.12836C28.3489 9.16101 28.5234 9.22744 28.7152 9.35534L32.6214 3.49604C31.6558 2.85229 30.587 2.41143 29.4366 2.20115L28.1704 9.12836ZM28.7318 9.36632C28.7063 9.34957 28.6829 9.33082 28.6629 9.31195C28.6431 9.29324 28.6313 9.27878 28.6267 9.27265C28.6172 9.26007 28.6468 9.29482 28.691 9.41223L35.2821 6.93299C34.7774 5.59113 33.9213 4.35198 32.6048 3.48505L28.7318 9.36632ZM28.701 9.4386C28.6832 9.39236 28.7163 9.45385 28.7257 9.68365C28.7351 9.91259 28.7188 10.2549 28.6405 10.7325L35.5898 11.8717C35.8515 10.2753 35.8927 8.51725 35.2721 6.90663L28.701 9.4386ZM28.6417 10.7255L26.8412 21.5714L33.7881 22.7246L35.5886 11.8787L28.6417 10.7255ZM30.3146 18.627H27.7853V25.669H30.3146V18.627ZM31.2548 22.7485L31.6406 20.5193L24.7017 19.3183L24.3159 21.5475L31.2548 22.7485ZM28.1712 16.3978H28.0426V23.4398H28.1712V16.3978ZM25.0769 18.0208C25.0924 17.9965 25.0793 18.0218 25.012 18.0953C24.9459 18.1674 24.8428 18.2696 24.6909 18.4008L29.2937 23.7303C29.9138 23.1948 30.5323 22.5603 31.0082 21.8168L25.0769 18.0208ZM24.6708 18.4183C24.5701 18.5066 24.3474 18.6635 23.9162 18.836L26.5316 25.3743C27.5293 24.9752 28.4856 24.4391 29.3137 23.7129L24.6708 18.4183ZM23.9049 18.8405C23.7086 18.9198 23.3431 19.0128 22.7268 19.0128V26.0548C24.0252 26.0548 25.3245 25.862 26.5429 25.3697L23.9049 18.8405ZM23.4555 23.7828C24.922 23.7828 26.3769 23.4923 27.7151 22.7913L24.4475 16.5533C24.2853 16.6383 23.9896 16.7408 23.4555 16.7408V23.7828ZM27.7029 22.7976C28.8881 22.1827 29.9298 21.3376 30.7395 20.2369L25.067 16.064C24.9622 16.2065 24.7892 16.376 24.4596 16.547L27.7029 22.7976ZM30.7239 20.2579C31.4852 19.239 32.0275 18.0698 32.2444 16.768L25.2982 15.6103C25.2866 15.6803 25.2501 15.8187 25.0825 16.043L30.7239 20.2579ZM32.2444 16.768L32.6303 14.4531L25.6841 13.2954L25.2982 15.6103L32.2444 16.768ZM26.6674 11.3845C26.8494 11.2026 27.0166 11.0821 27.1291 11.0096C27.2438 10.9356 27.3351 10.89 27.3864 10.8661C27.482 10.8217 27.5131 10.8186 27.4374 10.84L29.3551 17.6158C29.7855 17.494 30.8259 17.1849 31.6469 16.3639L26.6674 11.3845ZM27.497 10.8237C27.2487 10.8893 26.9327 10.9568 26.5397 11.0214L27.6806 17.9703C28.2451 17.8776 28.7864 17.7666 29.2955 17.6321L27.497 10.8237ZM26.5827 11.0146C26.1376 11.082 25.7048 11.1424 25.2841 11.1958L26.1712 18.1817C26.6507 18.1208 27.1395 18.0526 27.6376 17.9771L26.5827 11.0146ZM25.3326 11.19C24.8796 11.2411 24.4985 11.2867 24.1966 11.3264L25.1152 18.3083C25.3563 18.2765 25.6896 18.2364 26.1226 18.1875L25.3326 11.19ZM24.21 11.3247C23.341 11.4356 22.4931 11.6186 21.6715 11.8796L23.8034 18.5911C24.1964 18.4663 24.6275 18.3706 25.1018 18.31L24.21 11.3247ZM21.6964 11.8718C20.6601 12.1925 19.6812 12.7145 18.8405 13.4828L23.5908 18.6812C23.5908 18.6812 23.5921 18.68 23.5956 18.6775C23.5992 18.6749 23.6064 18.67 23.6187 18.6632C23.6426 18.6499 23.6925 18.6255 23.7786 18.5989L21.6964 11.8718ZM18.8426 13.4808C17.7401 14.4866 17.1756 15.7762 16.9755 17.0627L23.9338 18.1451C23.936 18.131 23.927 18.2001 23.8692 18.3158C23.8082 18.4377 23.7139 18.5689 23.5886 18.6832L18.8426 13.4808ZM16.9839 17.0113C16.6748 18.8219 17.0785 20.9223 18.9086 22.3635L23.2654 16.8311C23.5082 17.0222 23.7389 17.3262 23.8564 17.6967C23.9616 18.0282 23.9193 18.2323 23.9255 18.1964L16.9839 17.0113ZM18.9301 22.3803C20.321 23.4582 21.9685 23.7828 23.4555 23.7828V16.7408C23.203 16.7408 23.083 16.7123 23.0589 16.7055C23.0433 16.7011 23.1258 16.7227 23.2439 16.8142L18.9301 22.3803ZM34.9311 22.148L31.458 21.5692C31.2879 22.5901 31.5755 23.6342 32.2445 24.4239C32.9135 25.2136 33.8961 25.669 34.9311 25.669V22.148ZM37.6748 5.68619V2.16519C35.9536 2.16519 34.4846 3.40956 34.2017 5.10734L37.6748 5.68619ZM40.1183 5.68619L43.5881 6.28443C43.7646 5.26109 43.4803 4.21204 42.8112 3.41782C42.1422 2.62359 41.1568 2.16519 40.1183 2.16519V5.68619ZM39.6896 8.17261L36.2198 7.57437C36.0434 8.59772 36.3277 9.64676 36.9967 10.441C37.6657 11.2352 38.6512 11.6936 39.6896 11.6936V8.17261ZM39.8611 8.17261V11.6936C41.1684 11.6936 42.368 10.9693 42.9769 9.81251L39.8611 8.17261ZM41.8224 6.18991L40.0621 3.14048L40.0621 3.14048L41.8224 6.18991ZM45.3162 5.43969L45.2236 8.95947C45.2545 8.96029 45.2853 8.96069 45.3162 8.96069V5.43969ZM45.9485 5.47185L49.4216 6.0507C49.5775 5.11558 49.3497 4.15712 48.7897 3.39214C48.2298 2.62716 47.385 2.12031 46.4465 1.98623L45.9485 5.47185ZM45.5198 8.044L44.6659 11.4599C45.6192 11.6982 46.6287 11.5273 47.4504 10.9885C48.2722 10.4498 48.8314 9.59211 48.9929 8.62285L45.5198 8.044ZM44.9411 7.94755L44.3623 11.4206C44.3892 11.4251 44.4161 11.4293 44.4432 11.4332L44.9411 7.94755ZM41.7581 8.37624L43.2925 11.5453C43.3015 11.5409 43.3105 11.5366 43.3194 11.5321L41.7581 8.37624ZM40.054 9.74806L42.8167 11.9309C42.821 11.9254 42.8254 11.9199 42.8297 11.9144L40.054 9.74806ZM39.1752 11.7308L35.7058 11.1303C35.7041 11.1398 35.7025 11.1493 35.7009 11.1589L39.1752 11.7308ZM37.4604 22.148V25.669C39.1843 25.669 40.6547 24.4209 40.9347 22.7199L37.4604 22.148ZM38.4042 22.7269L41.1479 6.26504L34.2017 5.10734L31.458 21.5692L38.4042 22.7269ZM37.6748 9.20719H40.1183V2.16519H37.6748V9.20719ZM36.6485 5.08795L36.2198 7.57437L43.1594 8.77085L43.5881 6.28443L36.6485 5.08795ZM39.6896 11.6936H39.8611V4.65161H39.6896V11.6936ZM42.9769 9.81251C43.0646 9.64582 43.2186 9.44944 43.5826 9.23933L40.0621 3.14048C38.6685 3.94495 37.515 5.07037 36.7453 6.53272L42.9769 9.81251ZM43.5826 9.23933C43.9425 9.03157 44.2701 8.94998 44.6196 8.94998V1.90797C42.9971 1.90797 41.4598 2.33367 40.0621 3.14048L43.5826 9.23933ZM44.6196 8.94998C44.772 8.94998 44.9716 8.95284 45.2236 8.95947L45.4088 1.91991C45.1178 1.91225 44.853 1.90797 44.6196 1.90797V8.94998ZM45.3162 8.96069C45.4082 8.96069 45.4673 8.96257 45.4991 8.96419C45.5143 8.96496 45.518 8.96541 45.5121 8.96488C45.5067 8.9644 45.4851 8.96239 45.4506 8.95746L46.4465 1.98623C46.051 1.92973 45.6461 1.91869 45.3162 1.91869V8.96069ZM42.4754 4.893L42.0467 7.46515L48.9929 8.62285L49.4216 6.0507L42.4754 4.893ZM46.3738 4.62813C46.077 4.55394 45.6912 4.49796 45.4391 4.46194L44.4432 11.4332C44.5791 11.4526 44.6728 11.467 44.732 11.4769C44.7614 11.4818 44.7727 11.484 44.7705 11.4836C44.7689 11.4833 44.7599 11.4815 44.7449 11.4783C44.731 11.4753 44.7032 11.4692 44.6659 11.4599L46.3738 4.62813ZM45.52 4.47445C45.0062 4.38884 44.4894 4.35153 43.9765 4.35153V11.3935C44.1496 11.3935 44.2758 11.4062 44.3623 11.4206L45.52 4.47445ZM43.9765 4.35153C42.6662 4.35153 41.3884 4.63078 40.1967 5.22035L43.3194 11.5321C43.4852 11.4501 43.6864 11.3935 43.9765 11.3935V4.35153ZM40.2236 5.2072C39.0672 5.76712 38.0722 6.56458 37.2783 7.58169L42.8297 11.9144C42.9504 11.7598 43.0914 11.6427 43.2925 11.5453L40.2236 5.2072ZM37.2913 7.56519C36.4619 8.6149 35.9321 9.82261 35.7058 11.1303L42.6446 12.3312C42.6755 12.1528 42.7316 12.0387 42.8167 11.9309L37.2913 7.56519ZM35.7009 11.1589L33.9862 21.5761L40.9347 22.7199L42.6494 12.3027L35.7009 11.1589ZM37.4604 18.627H34.9311V25.669H37.4604V18.627ZM50.3775 12.2452L46.9116 11.6244C46.9087 11.6408 46.9059 11.6572 46.9032 11.6737L50.3775 12.2452ZM48.7484 22.148V25.669C50.4724 25.669 51.9429 24.4207 52.2227 22.7195L48.7484 22.148ZM46.2192 22.148L42.7461 21.5692C42.5759 22.5901 42.8636 23.6342 43.5326 24.4239C44.2016 25.2136 45.1841 25.669 46.2192 25.669V22.148ZM48.9628 5.68619V2.16519C47.2416 2.16519 45.7727 3.40956 45.4897 5.10734L48.9628 5.68619ZM51.4063 5.68619L54.8794 6.26504C55.0496 5.24412 54.7619 4.20004 54.0929 3.41031C53.4239 2.62057 52.4413 2.16519 51.4063 2.16519V5.68619ZM50.9776 8.25835L47.5046 7.6795C47.3344 8.70043 47.622 9.74451 48.291 10.5342C48.9601 11.324 49.9426 11.7794 50.9776 11.7794V8.25835ZM51.192 8.25835V11.7794C52.4147 11.7794 53.5499 11.145 54.1907 10.1037L51.192 8.25835ZM53.2819 6.24349L55.0421 9.29292C55.0483 9.28935 55.0545 9.28577 55.0606 9.28217L53.2819 6.24349ZM59.2514 6.15775L57.4315 9.17196C57.4426 9.17867 57.4538 9.18531 57.465 9.19189L59.2514 6.15775ZM60.8697 8.21548L57.5373 9.35214C57.5408 9.36253 57.5444 9.37291 57.548 9.38327L60.8697 8.21548ZM61.0091 11.6879L64.4814 12.2714C64.4823 12.266 64.4832 12.2606 64.4841 12.2552L61.0091 11.6879ZM59.2514 22.148V25.669C60.9709 25.669 62.4388 24.4271 62.7237 22.7315L59.2514 22.148ZM56.7221 22.148L53.249 21.5692C53.0789 22.5901 53.3665 23.6342 54.0355 24.4239C54.7045 25.2136 55.6871 25.669 56.7221 25.669V22.148ZM58.4369 11.8594L61.91 12.4382L58.4369 11.8594ZM57.9332 8.83709L55.1098 10.9408C55.1142 10.9467 55.1186 10.9526 55.123 10.9585L57.9332 8.83709ZM53.089 8.26907L51.5014 5.1263C51.497 5.12851 51.4926 5.13073 51.4882 5.13297L53.089 8.26907ZM51.342 9.80165L48.4748 7.75799C48.47 7.76477 48.4652 7.77156 48.4604 7.77837L51.342 9.80165ZM46.9032 11.6737L45.2741 21.5765L52.2227 22.7195L53.8518 12.8167L46.9032 11.6737ZM48.7484 18.627H46.2192V25.669H48.7484V18.627ZM49.6922 22.7269L52.4359 6.26504L45.4897 5.10734L42.7461 21.5692L49.6922 22.7269ZM48.9628 9.20719H51.4063V2.16519H48.9628V9.20719ZM47.9332 5.10734L47.5046 7.6795L54.4507 8.8372L54.8794 6.26504L47.9332 5.10734ZM50.9776 11.7794H51.192V4.73735H50.9776V11.7794ZM54.1907 10.1037C54.3881 9.7829 54.6519 9.51816 55.0421 9.29292L51.5216 3.19407C50.1542 3.9834 49.0248 5.0619 48.1933 6.413L54.1907 10.1037ZM55.0606 9.28217C55.2923 9.14653 55.7093 8.99285 56.4649 8.99285V1.95085C54.7341 1.95085 53.0291 2.31159 51.5031 3.20482L55.0606 9.28217ZM56.4649 8.99285C57.0791 8.99285 57.3426 9.11826 57.4315 9.17196L61.0713 3.14355C59.6455 2.2827 58.0514 1.95085 56.4649 1.95085V8.99285ZM57.465 9.19189C57.4742 9.1973 57.4743 9.19837 57.4697 9.19433C57.4677 9.19263 57.4657 9.19073 57.464 9.1889C57.4623 9.18707 57.4615 9.18608 57.4618 9.18641C57.4618 9.18648 57.4694 9.19596 57.4821 9.21998C57.4951 9.24445 57.515 9.28676 57.5373 9.35214L64.2022 7.07882C63.6445 5.44379 62.6008 4.04382 61.0379 3.12361L57.465 9.19189ZM57.548 9.38327C57.6041 9.54266 57.7087 10.0511 57.5341 11.1205L64.4841 12.2552C64.7667 10.5238 64.7785 8.7174 64.1914 7.04769L57.548 9.38327ZM57.5367 11.1044L55.7791 21.5645L62.7237 22.7315L64.4814 12.2714L57.5367 11.1044ZM59.2514 18.627H56.7221V25.669H59.2514V18.627ZM60.1952 22.7269L61.91 12.4382L54.9638 11.2805L53.249 21.5692L60.1952 22.7269ZM61.91 12.4382C62.2141 10.6134 62.0876 8.49638 60.7434 6.71568L55.123 10.9585C55.0752 10.8952 55.0417 10.8329 55.0204 10.7816C54.9998 10.7318 54.9967 10.7067 54.9986 10.7181C55.0038 10.7493 55.0239 10.9199 54.9638 11.2805L61.91 12.4382ZM60.7566 6.73336C59.3589 4.85744 57.279 4.22292 55.3503 4.22292V11.2649C55.5869 11.2649 55.6089 11.3025 55.5079 11.2598C55.4547 11.2373 55.3819 11.1983 55.3032 11.137C55.2239 11.0753 55.1587 11.0065 55.1098 10.9408L60.7566 6.73336ZM55.3503 4.22292C54.0121 4.22292 52.7109 4.51527 51.5014 5.1263L54.6765 11.4118C54.8531 11.3227 55.0595 11.2649 55.3503 11.2649V4.22292ZM51.4882 5.13297C50.2631 5.7583 49.2579 6.65934 48.4748 7.75799L54.2092 11.8453C54.3836 11.6007 54.543 11.48 54.6897 11.4052L51.4882 5.13297ZM48.4604 7.77837C47.6448 8.93998 47.1569 10.255 46.9116 11.6244L53.8433 12.8659C53.941 12.3206 54.0961 12.0066 54.2237 11.8249L48.4604 7.77837ZM70.861 0.198918L74.3267 0.820485C74.5107 -0.205727 74.2305 -1.26074 73.5615 -2.06039C72.8925 -2.86003 71.9036 -3.32208 70.861 -3.32208V0.198918ZM68.0316 15.9748V19.4958C69.7364 19.4958 71.1963 18.2744 71.4973 16.5964L68.0316 15.9748ZM65.5452 15.9748L62.0642 15.4451C61.9098 16.4598 62.2058 17.4913 62.8747 18.2696C63.5436 19.048 64.5189 19.4958 65.5452 19.4958V15.9748ZM67.9459 0.198918V-3.32208C66.2058 -3.32208 64.7267 -2.05103 64.4649 -0.330788L67.9459 0.198918ZM64.6985 21.7622L62.1614 24.2036C62.1691 24.2116 62.1769 24.2196 62.1847 24.2276L64.6985 21.7622ZM64.1305 20.3904L60.6098 20.4373C60.61 20.453 60.6103 20.4686 60.6107 20.4842L64.1305 20.3904ZM64.6985 19.0507L67.0907 21.6343C67.0992 21.6264 67.1077 21.6185 67.1161 21.6105L64.6985 19.0507ZM67.4314 19.0614L69.8737 16.5252L67.4314 19.0614ZM67.9887 20.3904L64.4691 20.2926C64.4688 20.3017 64.4686 20.3108 64.4684 20.32L67.9887 20.3904ZM67.7101 21.3656L64.7039 19.5326C64.6929 19.5506 64.6821 19.5687 64.6714 19.5869L67.7101 21.3656ZM67.0135 22.0623L65.2347 19.0236C65.2237 19.03 65.2128 19.0365 65.2019 19.043L67.0135 22.0623ZM67.3953 -0.422648L64.5659 15.3533L71.4973 16.5964L74.3267 0.820485L67.3953 -0.422648ZM68.0316 12.4538H65.5452V19.4958H68.0316V12.4538ZM69.0261 16.5045L71.4268 0.728625L64.4649 -0.330788L62.0642 15.4451L69.0261 16.5045ZM67.9459 3.71992H70.861V-3.32208H67.9459V3.71992ZM66.0596 18.7985C66.1964 18.7985 66.4063 18.8235 66.6462 18.9217C66.8893 19.0212 67.0802 19.1621 67.2123 19.2968L62.1847 24.2276C63.2428 25.3064 64.6169 25.8405 66.0596 25.8405V18.7985ZM67.2356 19.3208C67.3393 19.4285 67.4526 19.5859 67.5364 19.7882C67.6197 19.9894 67.6469 20.1699 67.6502 20.2965L60.6107 20.4842C60.6479 21.8783 61.1749 23.1784 62.1614 24.2036L67.2356 19.3208ZM67.6512 20.3434C67.6534 20.512 67.6238 20.7568 67.5088 21.028C67.3931 21.3008 67.2322 21.5033 67.0907 21.6343L62.3063 16.4671C61.1729 17.5166 60.5896 18.9262 60.6098 20.4373L67.6512 20.3434ZM67.1161 21.6105C67.0157 21.7054 66.8568 21.8212 66.6403 21.9082C66.4227 21.9955 66.218 22.0251 66.0596 22.0251V14.9831C64.6217 14.9831 63.3076 15.5212 62.2809 16.4909L67.1161 21.6105ZM66.0596 22.0251C65.9024 22.0251 65.6954 21.9955 65.4739 21.9055C65.2532 21.8159 65.0913 21.6961 64.9891 21.5977L69.8737 16.5252C68.8414 15.5311 67.5124 14.9831 66.0596 14.9831V22.0251ZM64.9891 21.5977C64.8764 21.4892 64.7259 21.303 64.6131 21.034C64.4988 20.7616 64.4633 20.4994 64.4691 20.2926L71.5084 20.4881C71.5514 18.9384 70.9403 17.5522 69.8737 16.5252L64.9891 21.5977ZM64.4684 20.32C64.4732 20.0814 64.5445 19.7939 64.7039 19.5326L70.7163 23.1987C71.2329 22.3515 71.49 21.4138 71.509 20.4608L64.4684 20.32ZM64.6714 19.5869C64.8049 19.3588 65.0066 19.1571 65.2347 19.0236L68.7922 25.1009C69.6062 24.6245 70.2723 23.9584 70.7487 23.1444L64.6714 19.5869ZM65.2019 19.043C65.4914 18.8693 65.8051 18.7985 66.0596 18.7985V25.8405C67.0143 25.8405 67.9639 25.5982 68.825 25.0815L65.2019 19.043Z" fill="white" fill-opacity="0.7"/>
</svg>
